<svg width="38" height="34" viewBox="0 0 38 34" fill="none" xmlns="http://www.w3.org/2000/svg">
<path fill-rule="evenodd" clip-rule="evenodd" d="M0.821467 1.29852C1.09456 0.709911 1.68445 0.333313 2.33333 0.333313H35.6667C36.3155 0.333313 36.9054 0.709911 37.1785 1.29852C37.4516 1.88713 37.3583 2.58073 36.9393 3.07619L24 18.3769V32C24 32.5776 23.7009 33.1141 23.2095 33.4177C22.7182 33.7214 22.1046 33.749 21.588 33.4907L14.9213 30.1574C14.3567 29.875 14 29.2979 14 28.6666V18.3769L1.06071 3.07619C0.641718 2.58073 0.54837 1.88713 0.821467 1.29852ZM5.9255 3.66665L16.9393 16.6904C17.1937 16.9913 17.3333 17.3726 17.3333 17.7666V27.6366L20.6667 29.3033V17.7666C20.6667 17.3726 20.8063 16.9913 21.0607 16.6904L32.0745 3.66665H5.9255Z" fill="black"/>
</svg>
