<svg width="160" height="160" viewBox="0 0 160 160" fill="none" xmlns="http://www.w3.org/2000/svg">
<circle cx="80" cy="80" r="80" fill="#D9D9D9"/>
<path fill-rule="evenodd" clip-rule="evenodd" d="M67.5458 48.9472C68.1486 48.0431 69.1634 47.5 70.25 47.5H89.75C90.8366 47.5 91.8514 48.0431 92.4542 48.9472L97.9893 57.25H109.25C111.836 57.25 114.316 58.2772 116.144 60.1057C117.973 61.9342 119 64.4141 119 67V102.75C119 105.336 117.973 107.816 116.144 109.644C114.316 111.473 111.836 112.5 109.25 112.5H50.75C48.1641 112.5 45.6842 111.473 43.8557 109.644C42.0272 107.816 41 105.336 41 102.75V67C41 64.4141 42.0272 61.9342 43.8557 60.1057C45.6842 58.2772 48.1641 57.25 50.75 57.25H62.0107L67.5458 48.9472ZM71.9893 54L66.4542 62.3028C65.8514 63.2069 64.8366 63.75 63.75 63.75H50.75C49.888 63.75 49.0614 64.0924 48.4519 64.7019C47.8424 65.3114 47.5 66.138 47.5 67V102.75C47.5 103.612 47.8424 104.439 48.4519 105.048C49.0614 105.658 49.888 106 50.75 106H109.25C110.112 106 110.939 105.658 111.548 105.048C112.158 104.439 112.5 103.612 112.5 102.75V67C112.5 66.138 112.158 65.3114 111.548 64.7019C110.939 64.0924 110.112 63.75 109.25 63.75H96.25C95.1634 63.75 94.1486 63.2069 93.5458 62.3028L88.0107 54H71.9893Z" fill="black"/>
<path fill-rule="evenodd" clip-rule="evenodd" d="M80 73.5C74.6152 73.5 70.25 77.8652 70.25 83.25C70.25 88.6348 74.6152 93 80 93C85.3848 93 89.75 88.6348 89.75 83.25C89.75 77.8652 85.3848 73.5 80 73.5ZM63.75 83.25C63.75 74.2754 71.0254 67 80 67C88.9746 67 96.25 74.2754 96.25 83.25C96.25 92.2246 88.9746 99.5 80 99.5C71.0254 99.5 63.75 92.2246 63.75 83.25Z" fill="black"/>
</svg>
