<svg width="105" height="105" viewBox="0 0 105 105" fill="none" xmlns="http://www.w3.org/2000/svg">
<path fill-rule="evenodd" clip-rule="evenodd" d="M52.5 17.5C54.9162 17.5 56.875 19.4588 56.875 21.875V83.125C56.875 85.5412 54.9162 87.5 52.5 87.5C50.0838 87.5 48.125 85.5412 48.125 83.125V21.875C48.125 19.4588 50.0838 17.5 52.5 17.5Z" fill="#F0D097"/>
<path fill-rule="evenodd" clip-rule="evenodd" d="M18.7814 49.4064C20.49 47.6979 23.26 47.6979 24.9686 49.4064L52.5 76.9378L80.0314 49.4064C81.74 47.6979 84.51 47.6979 86.2186 49.4064C87.9271 51.115 87.9271 53.885 86.2186 55.5936L55.5936 86.2186C53.885 87.9271 51.115 87.9271 49.4064 86.2186L18.7814 55.5936C17.0729 53.885 17.0729 51.115 18.7814 49.4064Z" fill="#F0D097"/>
</svg>
