<svg width="108" height="133" viewBox="0 0 108 133" fill="none" xmlns="http://www.w3.org/2000/svg">
<g filter="url(#filter0_di_8_139)">
<path fill-rule="evenodd" clip-rule="evenodd" d="M38.5537 22.0537C40.1809 20.4265 42.8191 20.4265 44.4463 22.0537L69.4463 47.0537C71.0734 48.6809 71.0734 51.3191 69.4463 52.9463L44.4463 77.9463C42.8191 79.5735 40.1809 79.5735 38.5537 77.9463C36.9265 76.3191 36.9265 73.6809 38.5537 72.0537L60.6074 50L38.5537 27.9463C36.9265 26.3191 36.9265 23.6809 38.5537 22.0537Z" fill="black" fill-opacity="0.57"/>
<path d="M16.5128 124.24L10.2248 109.432C10.0168 108.936 9.75275 108.536 9.43275 108.232C9.12875 107.912 8.68075 107.696 8.08875 107.584L7.60875 107.488V106.888L11.1848 106.96L14.7608 106.888V107.488L14.0408 107.56C13.5448 107.608 13.1448 107.736 12.8408 107.944C12.5528 108.136 12.4088 108.432 12.4088 108.832C12.4088 109.12 12.4968 109.48 12.6728 109.912L17.5208 121.408L22.1768 109.888C22.2728 109.664 22.3368 109.464 22.3688 109.288C22.4168 109.096 22.4408 108.928 22.4408 108.784C22.4408 108.4 22.3128 108.12 22.0568 107.944C21.8008 107.752 21.4488 107.632 21.0008 107.584L20.1608 107.488V106.888L23.5208 106.96L25.9208 106.888V107.464L25.3688 107.584C24.7608 107.712 24.2888 107.96 23.9528 108.328C23.6168 108.696 23.3128 109.224 23.0408 109.912L17.2808 124.24H16.5128ZM30.2188 124.264C29.1628 124.264 28.2428 124.04 27.4588 123.592C26.6748 123.128 26.0588 122.496 25.6108 121.696C25.1788 120.88 24.9628 119.952 24.9628 118.912C24.9628 117.792 25.2028 116.8 25.6828 115.936C26.1628 115.056 26.8028 114.368 27.6028 113.872C28.4188 113.36 29.3148 113.104 30.2908 113.104C31.5228 113.104 32.4828 113.496 33.1708 114.28C33.8748 115.064 34.2268 116.096 34.2268 117.376C34.2268 117.568 34.2188 117.728 34.2028 117.856C34.1868 117.984 34.1708 118.072 34.1548 118.12H26.9068C26.8908 118.344 26.8828 118.568 26.8828 118.792C26.8828 119.64 27.0188 120.432 27.2908 121.168C27.5628 121.888 27.9708 122.464 28.5148 122.896C29.0748 123.328 29.7548 123.544 30.5548 123.544C31.3068 123.544 31.9708 123.336 32.5468 122.92C33.1388 122.488 33.5948 121.856 33.9148 121.024L34.4908 121.24C33.8188 123.256 32.3948 124.264 30.2188 124.264ZM30.2908 113.704C29.2988 113.704 28.5228 114.056 27.9628 114.76C27.4188 115.464 27.0828 116.4 26.9548 117.568H30.0028C30.7228 117.568 31.2668 117.488 31.6348 117.328C32.0188 117.152 32.2748 116.944 32.4028 116.704C32.5468 116.448 32.6188 116.2 32.6188 115.96C32.6188 115.256 32.3788 114.704 31.8988 114.304C31.4188 113.904 30.8828 113.704 30.2908 113.704ZM35.9923 124.072V123.52L36.3763 123.472C36.8403 123.408 37.1923 123.336 37.4323 123.256C37.6883 123.16 37.8643 122.96 37.9603 122.656C38.0563 122.336 38.1043 121.816 38.1043 121.096V116.104C38.1043 115.48 38.0163 115.024 37.8403 114.736C37.6803 114.448 37.4403 114.272 37.1203 114.208C36.8003 114.128 36.4243 114.088 35.9923 114.088V113.536C36.6483 113.536 37.2803 113.512 37.8883 113.464C38.4963 113.416 39.1283 113.344 39.7843 113.248L39.5203 116.008H39.6163C39.9683 114.936 40.4003 114.184 40.9123 113.752C41.4243 113.32 41.9763 113.104 42.5683 113.104C43.2403 113.104 43.6883 113.272 43.9123 113.608C44.1363 113.928 44.2483 114.24 44.2483 114.544C44.2483 114.896 44.1443 115.184 43.9363 115.408C43.7283 115.632 43.4483 115.744 43.0963 115.744C42.7603 115.744 42.5043 115.664 42.3283 115.504C42.1523 115.344 42.0643 115.16 42.0643 114.952C42.0643 114.792 42.0803 114.64 42.1123 114.496C42.1603 114.352 42.1843 114.24 42.1843 114.16C42.1843 114 42.0723 113.92 41.8483 113.92C41.6243 113.92 41.3843 114.024 41.1283 114.232C40.8883 114.44 40.6803 114.728 40.5043 115.096C40.3603 115.4 40.2243 115.736 40.0963 116.104C39.9683 116.472 39.8643 116.872 39.7843 117.304V121.096C39.7843 121.816 39.8323 122.336 39.9283 122.656C40.0243 122.96 40.1923 123.16 40.4323 123.256C40.6883 123.336 41.0483 123.408 41.5123 123.472L41.8963 123.52V124.072L38.9443 124L35.9923 124.072ZM51.7189 124.072V123.52L52.1029 123.472C52.5669 123.408 52.9189 123.336 53.1589 123.256C53.4149 123.16 53.5909 122.96 53.6869 122.656C53.7829 122.336 53.8309 121.816 53.8309 121.096V116.032C53.8309 115.456 53.7429 115.032 53.5669 114.76C53.4069 114.472 53.1669 114.288 52.8469 114.208C52.5269 114.128 52.1509 114.088 51.7189 114.088V113.536C52.3749 113.536 53.0069 113.52 53.6149 113.488C54.2229 113.44 54.8549 113.36 55.5109 113.248V115.12C55.8629 114.576 56.3509 114.104 56.9749 113.704C57.6149 113.304 58.3509 113.104 59.1829 113.104C60.0309 113.104 60.7349 113.288 61.2949 113.656C61.8709 114.008 62.2549 114.568 62.4469 115.336C62.7829 114.76 63.2789 114.248 63.9349 113.8C64.5909 113.336 65.3669 113.104 66.2629 113.104C67.3029 113.104 68.1269 113.376 68.7349 113.92C69.3589 114.464 69.6709 115.328 69.6709 116.512V121.096C69.6709 121.8 69.7109 122.312 69.7909 122.632C69.8869 122.936 70.0549 123.136 70.2949 123.232C70.5509 123.328 70.9109 123.408 71.3749 123.472L71.7589 123.52V124.072L68.8309 124L66.1189 124.072V123.52L66.5029 123.472C66.9029 123.424 67.2069 123.352 67.4149 123.256C67.6389 123.16 67.7909 122.96 67.8709 122.656C67.9509 122.336 67.9909 121.816 67.9909 121.096V116.104C67.9909 115.4 67.7989 114.848 67.4149 114.448C67.0309 114.032 66.4869 113.824 65.7829 113.824C65.2069 113.824 64.7029 113.952 64.2709 114.208C63.8389 114.464 63.4789 114.784 63.1909 115.168C62.9189 115.552 62.7189 115.928 62.5909 116.296C62.5909 116.36 62.5909 116.432 62.5909 116.512V121.096C62.5909 121.816 62.6309 122.336 62.7109 122.656C62.7909 122.96 62.9349 123.16 63.1429 123.256C63.3669 123.336 63.6789 123.408 64.0789 123.472L64.4629 123.52V124.072L61.7509 124L59.0389 124.072V123.52L59.4229 123.472C59.8229 123.408 60.1269 123.336 60.3349 123.256C60.5589 123.16 60.7109 122.96 60.7909 122.656C60.8709 122.336 60.9109 121.816 60.9109 121.096V116.104C60.9109 115.4 60.7189 114.848 60.3349 114.448C59.9509 114.032 59.4069 113.824 58.7029 113.824C58.1429 113.824 57.6469 113.952 57.2149 114.208C56.7829 114.464 56.4229 114.784 56.1349 115.168C55.8469 115.552 55.6389 115.928 55.5109 116.296V121.096C55.5109 121.816 55.5509 122.336 55.6309 122.656C55.7109 122.96 55.8549 123.16 56.0629 123.256C56.2869 123.336 56.5989 123.408 56.9989 123.472L57.3829 123.52V124.072L54.6709 124L51.7189 124.072ZM75.8874 124.264C75.1194 124.264 74.4794 124.072 73.9674 123.688C73.4714 123.288 73.2234 122.736 73.2234 122.032C73.2234 121.328 73.5354 120.704 74.1594 120.16C74.7834 119.6 75.5114 119.096 76.3434 118.648C76.9674 118.296 77.5914 117.992 78.2154 117.736C78.8394 117.48 79.3754 117.264 79.8234 117.088V116.32C79.8234 115.44 79.6554 114.784 79.3194 114.352C78.9994 113.92 78.3834 113.704 77.4714 113.704C77.0394 113.704 76.6154 113.76 76.1994 113.872C75.7834 113.984 75.5754 114.192 75.5754 114.496C75.5754 114.56 75.5834 114.632 75.5994 114.712C75.6314 114.792 75.6554 114.872 75.6714 114.952C75.7514 115.16 75.7914 115.376 75.7914 115.6C75.7914 115.904 75.6794 116.144 75.4554 116.32C75.2474 116.48 74.9914 116.56 74.6874 116.56C74.3994 116.56 74.1594 116.456 73.9674 116.248C73.7754 116.024 73.6794 115.76 73.6794 115.456C73.6794 114.88 73.8954 114.424 74.3274 114.088C74.7754 113.736 75.3194 113.488 75.9594 113.344C76.5994 113.184 77.2154 113.104 77.8074 113.104C79.0874 113.104 80.0234 113.4 80.6154 113.992C81.2074 114.584 81.5034 115.552 81.5034 116.896V121.216C81.5034 121.92 81.5514 122.464 81.6474 122.848C81.7594 123.232 81.9994 123.424 82.3674 123.424C82.6074 123.424 82.8154 123.336 82.9914 123.16C83.1674 122.984 83.2874 122.792 83.3514 122.584L83.7834 122.752C83.6554 123.216 83.4234 123.584 83.0874 123.856C82.7674 124.128 82.3194 124.264 81.7434 124.264C81.0394 124.264 80.5514 124.064 80.2794 123.664C80.0234 123.248 79.8794 122.704 79.8474 122.032C79.3994 122.752 78.8314 123.304 78.1434 123.688C77.4554 124.072 76.7034 124.264 75.8874 124.264ZM75.0954 121.912C75.0954 122.36 75.2234 122.72 75.4794 122.992C75.7514 123.248 76.1434 123.376 76.6554 123.376C77.1194 123.376 77.5594 123.264 77.9754 123.04C78.4074 122.816 78.7834 122.536 79.1034 122.2C79.4234 121.848 79.6634 121.472 79.8234 121.072V117.568C79.2954 117.792 78.7514 118.056 78.1914 118.36C77.6474 118.648 77.1354 118.976 76.6554 119.344C76.1914 119.712 75.8154 120.112 75.5274 120.544C75.2394 120.96 75.0954 121.416 75.0954 121.912ZM84.4611 124.072V123.52L84.8451 123.472C85.3091 123.408 85.6611 123.336 85.9011 123.256C86.1571 123.16 86.3331 122.96 86.4291 122.656C86.5251 122.336 86.5731 121.816 86.5731 121.096V116.032C86.5731 115.2 86.3971 114.672 86.0451 114.448C85.7091 114.208 85.2371 114.088 84.6291 114.088H84.4611V113.536C85.1171 113.536 85.7491 113.52 86.3571 113.488C86.9651 113.44 87.5971 113.36 88.2531 113.248V121.096C88.2531 121.816 88.3011 122.336 88.3971 122.656C88.4931 122.96 88.6611 123.16 88.9011 123.256C89.1571 123.336 89.5171 123.408 89.9811 123.472L90.3651 123.52V124.072L87.4131 124L84.4611 124.072ZM87.1251 110.44C86.7091 110.44 86.3811 110.296 86.1411 110.008C85.9011 109.72 85.7811 109.376 85.7811 108.976C85.7811 108.56 85.9011 108.216 86.1411 107.944C86.3811 107.656 86.7091 107.512 87.1251 107.512C87.5891 107.512 87.9251 107.656 88.1331 107.944C88.3571 108.216 88.4691 108.56 88.4691 108.976C88.4691 109.376 88.3571 109.72 88.1331 110.008C87.9251 110.296 87.5891 110.44 87.1251 110.44ZM95.6974 124.264C95.0894 124.264 94.5694 124.192 94.1374 124.048C93.7214 123.92 93.3934 123.8 93.1534 123.688C92.8974 123.56 92.7374 123.496 92.6734 123.496C92.6094 123.496 92.5534 123.528 92.5054 123.592C92.4734 123.64 92.4334 123.776 92.3854 124H91.8334L91.9294 122.416L92.0014 120.376H92.5294L92.5534 120.784C92.5854 121.232 92.7294 121.68 92.9854 122.128C93.2574 122.576 93.6254 122.952 94.0894 123.256C94.5534 123.56 95.0894 123.712 95.6974 123.712C96.3534 123.712 96.8814 123.544 97.2814 123.208C97.6814 122.872 97.8814 122.408 97.8814 121.816C97.8814 121.304 97.6734 120.872 97.2574 120.52C96.8574 120.168 96.2974 119.856 95.5774 119.584L94.7134 119.248C93.8814 118.928 93.2494 118.528 92.8174 118.048C92.4014 117.568 92.1934 116.952 92.1934 116.2C92.1934 115.56 92.3374 115.016 92.6254 114.568C92.9294 114.104 93.3214 113.744 93.8014 113.488C94.2974 113.232 94.8254 113.104 95.3854 113.104C95.7854 113.104 96.1214 113.152 96.3934 113.248C96.6814 113.344 96.9214 113.44 97.1134 113.536C97.2734 113.616 97.4094 113.656 97.5214 113.656C97.6814 113.656 97.8094 113.488 97.9054 113.152L98.4334 113.176L98.3374 114.736V116.416H97.7854C97.6734 115.664 97.4174 115.016 97.0174 114.472C96.6174 113.912 96.0414 113.632 95.2894 113.632C94.7614 113.632 94.3134 113.8 93.9454 114.136C93.5934 114.472 93.4174 114.896 93.4174 115.408C93.4174 115.904 93.6014 116.32 93.9694 116.656C94.3534 116.976 94.8734 117.264 95.5294 117.52L96.4654 117.88C97.4414 118.248 98.1134 118.696 98.4814 119.224C98.8654 119.736 99.0574 120.352 99.0574 121.072C99.0574 121.92 98.7694 122.664 98.1934 123.304C97.6174 123.944 96.7854 124.264 95.6974 124.264Z" fill="black" fill-opacity="0.57"/>
</g>
<defs>
<filter id="filter0_di_8_139" x="0" y="0" width="108" height="132.264" filterUnits="userSpaceOnUse" color-interpolation-filters="sRGB">
<feFlood flood-opacity="0" result="BackgroundImageFix"/>
<feColorMatrix in="SourceAlpha" type="matrix" values="0 0 0 0 0 0 0 0 0 0 0 0 0 0 0 0 0 0 127 0" result="hardAlpha"/>
<feOffset dy="4"/>
<feGaussianBlur stdDeviation="2"/>
<feComposite in2="hardAlpha" operator="out"/>
<feColorMatrix type="matrix" values="0 0 0 0 0 0 0 0 0 0 0 0 0 0 0 0 0 0 0.25 0"/>
<feBlend mode="normal" in2="BackgroundImageFix" result="effect1_dropShadow_8_139"/>
<feBlend mode="normal" in="SourceGraphic" in2="effect1_dropShadow_8_139" result="shape"/>
<feColorMatrix in="SourceAlpha" type="matrix" values="0 0 0 0 0 0 0 0 0 0 0 0 0 0 0 0 0 0 127 0" result="hardAlpha"/>
<feOffset dy="4"/>
<feGaussianBlur stdDeviation="2"/>
<feComposite in2="hardAlpha" operator="arithmetic" k2="-1" k3="1"/>
<feColorMatrix type="matrix" values="0 0 0 0 0 0 0 0 0 0 0 0 0 0 0 0 0 0 0.86 0"/>
<feBlend mode="normal" in2="shape" result="effect2_innerShadow_8_139"/>
</filter>
</defs>
</svg>
