<svg width="100" height="131" viewBox="0 0 100 131" fill="none" xmlns="http://www.w3.org/2000/svg">
<path fill-rule="evenodd" clip-rule="evenodd" d="M34.5537 22.0537C36.1809 20.4265 38.8191 20.4265 40.4463 22.0537L65.4463 47.0537C67.0734 48.6809 67.0734 51.3191 65.4463 52.9463L40.4463 77.9463C38.8191 79.5735 36.1809 79.5735 34.5537 77.9463C32.9265 76.3191 32.9265 73.6809 34.5537 72.0537L56.6074 50L34.5537 27.9463C32.9265 26.3191 32.9265 23.6809 34.5537 22.0537Z" fill="black"/>
<path d="M12.5128 124.24L6.22475 109.432C6.01675 108.936 5.75275 108.536 5.43275 108.232C5.12875 107.912 4.68075 107.696 4.08875 107.584L3.60875 107.488V106.888L7.18475 106.96L10.7608 106.888V107.488L10.0408 107.56C9.54475 107.608 9.14475 107.736 8.84075 107.944C8.55275 108.136 8.40875 108.432 8.40875 108.832C8.40875 109.12 8.49675 109.48 8.67275 109.912L13.5208 121.408L18.1768 109.888C18.2728 109.664 18.3368 109.464 18.3688 109.288C18.4168 109.096 18.4408 108.928 18.4408 108.784C18.4408 108.4 18.3128 108.12 18.0568 107.944C17.8008 107.752 17.4488 107.632 17.0008 107.584L16.1608 107.488V106.888L19.5208 106.96L21.9208 106.888V107.464L21.3688 107.584C20.7608 107.712 20.2888 107.96 19.9528 108.328C19.6168 108.696 19.3128 109.224 19.0408 109.912L13.2808 124.24H12.5128ZM26.2188 124.264C25.1628 124.264 24.2428 124.04 23.4588 123.592C22.6748 123.128 22.0588 122.496 21.6108 121.696C21.1788 120.88 20.9628 119.952 20.9628 118.912C20.9628 117.792 21.2028 116.8 21.6828 115.936C22.1628 115.056 22.8028 114.368 23.6028 113.872C24.4188 113.36 25.3148 113.104 26.2908 113.104C27.5228 113.104 28.4828 113.496 29.1708 114.28C29.8748 115.064 30.2268 116.096 30.2268 117.376C30.2268 117.568 30.2188 117.728 30.2028 117.856C30.1868 117.984 30.1708 118.072 30.1548 118.12H22.9068C22.8908 118.344 22.8828 118.568 22.8828 118.792C22.8828 119.64 23.0188 120.432 23.2908 121.168C23.5628 121.888 23.9708 122.464 24.5148 122.896C25.0748 123.328 25.7548 123.544 26.5548 123.544C27.3068 123.544 27.9708 123.336 28.5468 122.92C29.1388 122.488 29.5948 121.856 29.9148 121.024L30.4908 121.24C29.8188 123.256 28.3948 124.264 26.2188 124.264ZM26.2908 113.704C25.2988 113.704 24.5228 114.056 23.9628 114.76C23.4188 115.464 23.0828 116.4 22.9548 117.568H26.0028C26.7228 117.568 27.2668 117.488 27.6348 117.328C28.0188 117.152 28.2748 116.944 28.4028 116.704C28.5468 116.448 28.6188 116.2 28.6188 115.96C28.6188 115.256 28.3788 114.704 27.8988 114.304C27.4188 113.904 26.8828 113.704 26.2908 113.704ZM31.9923 124.072V123.52L32.3763 123.472C32.8403 123.408 33.1923 123.336 33.4323 123.256C33.6883 123.16 33.8643 122.96 33.9603 122.656C34.0563 122.336 34.1043 121.816 34.1043 121.096V116.104C34.1043 115.48 34.0163 115.024 33.8403 114.736C33.6803 114.448 33.4403 114.272 33.1203 114.208C32.8003 114.128 32.4243 114.088 31.9923 114.088V113.536C32.6483 113.536 33.2803 113.512 33.8883 113.464C34.4963 113.416 35.1283 113.344 35.7843 113.248L35.5203 116.008H35.6163C35.9683 114.936 36.4003 114.184 36.9123 113.752C37.4243 113.32 37.9763 113.104 38.5683 113.104C39.2403 113.104 39.6883 113.272 39.9123 113.608C40.1363 113.928 40.2483 114.24 40.2483 114.544C40.2483 114.896 40.1443 115.184 39.9363 115.408C39.7283 115.632 39.4483 115.744 39.0963 115.744C38.7603 115.744 38.5043 115.664 38.3283 115.504C38.1523 115.344 38.0643 115.16 38.0643 114.952C38.0643 114.792 38.0803 114.64 38.1123 114.496C38.1603 114.352 38.1843 114.24 38.1843 114.16C38.1843 114 38.0723 113.92 37.8483 113.92C37.6243 113.92 37.3843 114.024 37.1283 114.232C36.8883 114.44 36.6803 114.728 36.5043 115.096C36.3603 115.4 36.2243 115.736 36.0963 116.104C35.9683 116.472 35.8643 116.872 35.7843 117.304V121.096C35.7843 121.816 35.8323 122.336 35.9283 122.656C36.0243 122.96 36.1923 123.16 36.4323 123.256C36.6883 123.336 37.0483 123.408 37.5123 123.472L37.8963 123.52V124.072L34.9443 124L31.9923 124.072ZM47.7189 124.072V123.52L48.1029 123.472C48.5669 123.408 48.9189 123.336 49.1589 123.256C49.4149 123.16 49.5909 122.96 49.6869 122.656C49.7829 122.336 49.8309 121.816 49.8309 121.096V116.032C49.8309 115.456 49.7429 115.032 49.5669 114.76C49.4069 114.472 49.1669 114.288 48.8469 114.208C48.5269 114.128 48.1509 114.088 47.7189 114.088V113.536C48.3749 113.536 49.0069 113.52 49.6149 113.488C50.2229 113.44 50.8549 113.36 51.5109 113.248V115.12C51.8629 114.576 52.3509 114.104 52.9749 113.704C53.6149 113.304 54.3509 113.104 55.1829 113.104C56.0309 113.104 56.7349 113.288 57.2949 113.656C57.8709 114.008 58.2549 114.568 58.4469 115.336C58.7829 114.76 59.2789 114.248 59.9349 113.8C60.5909 113.336 61.3669 113.104 62.2629 113.104C63.3029 113.104 64.1269 113.376 64.7349 113.92C65.3589 114.464 65.6709 115.328 65.6709 116.512V121.096C65.6709 121.8 65.7109 122.312 65.7909 122.632C65.8869 122.936 66.0549 123.136 66.2949 123.232C66.5509 123.328 66.9109 123.408 67.3749 123.472L67.7589 123.52V124.072L64.8309 124L62.1189 124.072V123.52L62.5029 123.472C62.9029 123.424 63.2069 123.352 63.4149 123.256C63.6389 123.16 63.7909 122.96 63.8709 122.656C63.9509 122.336 63.9909 121.816 63.9909 121.096V116.104C63.9909 115.4 63.7989 114.848 63.4149 114.448C63.0309 114.032 62.4869 113.824 61.7829 113.824C61.2069 113.824 60.7029 113.952 60.2709 114.208C59.8389 114.464 59.4789 114.784 59.1909 115.168C58.9189 115.552 58.7189 115.928 58.5909 116.296C58.5909 116.36 58.5909 116.432 58.5909 116.512V121.096C58.5909 121.816 58.6309 122.336 58.7109 122.656C58.7909 122.96 58.9349 123.16 59.1429 123.256C59.3669 123.336 59.6789 123.408 60.0789 123.472L60.4629 123.52V124.072L57.7509 124L55.0389 124.072V123.52L55.4229 123.472C55.8229 123.408 56.1269 123.336 56.3349 123.256C56.5589 123.16 56.7109 122.96 56.7909 122.656C56.8709 122.336 56.9109 121.816 56.9109 121.096V116.104C56.9109 115.4 56.7189 114.848 56.3349 114.448C55.9509 114.032 55.4069 113.824 54.7029 113.824C54.1429 113.824 53.6469 113.952 53.2149 114.208C52.7829 114.464 52.4229 114.784 52.1349 115.168C51.8469 115.552 51.6389 115.928 51.5109 116.296V121.096C51.5109 121.816 51.5509 122.336 51.6309 122.656C51.7109 122.96 51.8549 123.16 52.0629 123.256C52.2869 123.336 52.5989 123.408 52.9989 123.472L53.3829 123.52V124.072L50.6709 124L47.7189 124.072ZM71.8874 124.264C71.1194 124.264 70.4794 124.072 69.9674 123.688C69.4714 123.288 69.2234 122.736 69.2234 122.032C69.2234 121.328 69.5354 120.704 70.1594 120.16C70.7834 119.6 71.5114 119.096 72.3434 118.648C72.9674 118.296 73.5914 117.992 74.2154 117.736C74.8394 117.48 75.3754 117.264 75.8234 117.088V116.32C75.8234 115.44 75.6554 114.784 75.3194 114.352C74.9994 113.92 74.3834 113.704 73.4714 113.704C73.0394 113.704 72.6154 113.76 72.1994 113.872C71.7834 113.984 71.5754 114.192 71.5754 114.496C71.5754 114.56 71.5834 114.632 71.5994 114.712C71.6314 114.792 71.6554 114.872 71.6714 114.952C71.7514 115.16 71.7914 115.376 71.7914 115.6C71.7914 115.904 71.6794 116.144 71.4554 116.32C71.2474 116.48 70.9914 116.56 70.6874 116.56C70.3994 116.56 70.1594 116.456 69.9674 116.248C69.7754 116.024 69.6794 115.76 69.6794 115.456C69.6794 114.88 69.8954 114.424 70.3274 114.088C70.7754 113.736 71.3194 113.488 71.9594 113.344C72.5994 113.184 73.2154 113.104 73.8074 113.104C75.0874 113.104 76.0234 113.4 76.6154 113.992C77.2074 114.584 77.5034 115.552 77.5034 116.896V121.216C77.5034 121.92 77.5514 122.464 77.6474 122.848C77.7594 123.232 77.9994 123.424 78.3674 123.424C78.6074 123.424 78.8154 123.336 78.9914 123.16C79.1674 122.984 79.2874 122.792 79.3514 122.584L79.7834 122.752C79.6554 123.216 79.4234 123.584 79.0874 123.856C78.7674 124.128 78.3194 124.264 77.7434 124.264C77.0394 124.264 76.5514 124.064 76.2794 123.664C76.0234 123.248 75.8794 122.704 75.8474 122.032C75.3994 122.752 74.8314 123.304 74.1434 123.688C73.4554 124.072 72.7034 124.264 71.8874 124.264ZM71.0954 121.912C71.0954 122.36 71.2234 122.72 71.4794 122.992C71.7514 123.248 72.1434 123.376 72.6554 123.376C73.1194 123.376 73.5594 123.264 73.9754 123.04C74.4074 122.816 74.7834 122.536 75.1034 122.2C75.4234 121.848 75.6634 121.472 75.8234 121.072V117.568C75.2954 117.792 74.7514 118.056 74.1914 118.36C73.6474 118.648 73.1354 118.976 72.6554 119.344C72.1914 119.712 71.8154 120.112 71.5274 120.544C71.2394 120.96 71.0954 121.416 71.0954 121.912ZM80.4611 124.072V123.52L80.8451 123.472C81.3091 123.408 81.6611 123.336 81.9011 123.256C82.1571 123.16 82.3331 122.96 82.4291 122.656C82.5251 122.336 82.5731 121.816 82.5731 121.096V116.032C82.5731 115.2 82.3971 114.672 82.0451 114.448C81.7091 114.208 81.2371 114.088 80.6291 114.088H80.4611V113.536C81.1171 113.536 81.7491 113.52 82.3571 113.488C82.9651 113.44 83.5971 113.36 84.2531 113.248V121.096C84.2531 121.816 84.3011 122.336 84.3971 122.656C84.4931 122.96 84.6611 123.16 84.9011 123.256C85.1571 123.336 85.5171 123.408 85.9811 123.472L86.3651 123.52V124.072L83.4131 124L80.4611 124.072ZM83.1251 110.44C82.7091 110.44 82.3811 110.296 82.1411 110.008C81.9011 109.72 81.7811 109.376 81.7811 108.976C81.7811 108.56 81.9011 108.216 82.1411 107.944C82.3811 107.656 82.7091 107.512 83.1251 107.512C83.5891 107.512 83.9251 107.656 84.1331 107.944C84.3571 108.216 84.4691 108.56 84.4691 108.976C84.4691 109.376 84.3571 109.72 84.1331 110.008C83.9251 110.296 83.5891 110.44 83.1251 110.44ZM91.6974 124.264C91.0894 124.264 90.5694 124.192 90.1374 124.048C89.7214 123.92 89.3934 123.8 89.1534 123.688C88.8974 123.56 88.7374 123.496 88.6734 123.496C88.6094 123.496 88.5534 123.528 88.5054 123.592C88.4734 123.64 88.4334 123.776 88.3854 124H87.8334L87.9294 122.416L88.0014 120.376H88.5294L88.5534 120.784C88.5854 121.232 88.7294 121.68 88.9854 122.128C89.2574 122.576 89.6254 122.952 90.0894 123.256C90.5534 123.56 91.0894 123.712 91.6974 123.712C92.3534 123.712 92.8814 123.544 93.2814 123.208C93.6814 122.872 93.8814 122.408 93.8814 121.816C93.8814 121.304 93.6734 120.872 93.2574 120.52C92.8574 120.168 92.2974 119.856 91.5774 119.584L90.7134 119.248C89.8814 118.928 89.2494 118.528 88.8174 118.048C88.4014 117.568 88.1934 116.952 88.1934 116.2C88.1934 115.56 88.3374 115.016 88.6254 114.568C88.9294 114.104 89.3214 113.744 89.8014 113.488C90.2974 113.232 90.8254 113.104 91.3854 113.104C91.7854 113.104 92.1214 113.152 92.3934 113.248C92.6814 113.344 92.9214 113.44 93.1134 113.536C93.2734 113.616 93.4094 113.656 93.5214 113.656C93.6814 113.656 93.8094 113.488 93.9054 113.152L94.4334 113.176L94.3374 114.736V116.416H93.7854C93.6734 115.664 93.4174 115.016 93.0174 114.472C92.6174 113.912 92.0414 113.632 91.2894 113.632C90.7614 113.632 90.3134 113.8 89.9454 114.136C89.5934 114.472 89.4174 114.896 89.4174 115.408C89.4174 115.904 89.6014 116.32 89.9694 116.656C90.3534 116.976 90.8734 117.264 91.5294 117.52L92.4654 117.88C93.4414 118.248 94.1134 118.696 94.4814 119.224C94.8654 119.736 95.0574 120.352 95.0574 121.072C95.0574 121.92 94.7694 122.664 94.1934 123.304C93.6174 123.944 92.7854 124.264 91.6974 124.264Z" fill="black"/>
</svg>
